<svg xmlns="http://www.w3.org/2000/svg" width="94.75" height="40.5" viewBox="0 0 94.75 40.5">
  <metadata><?xpacket begin="﻿" id="W5M0MpCehiHzreSzNTczkc9d"?>
<x:xmpmeta xmlns:x="adobe:ns:meta/" x:xmptk="Adobe XMP Core 5.6-c138 79.159824, 2016/09/14-01:09:01        ">
   <rdf:RDF xmlns:rdf="http://www.w3.org/1999/02/22-rdf-syntax-ns#">
      <rdf:Description rdf:about=""/>
   </rdf:RDF>
</x:xmpmeta>                     
<?xpacket end="w"?></metadata>
<defs>
    <style>
      .cls-1 {
        fill: #261f21;
        fill-rule: evenodd;
      }
    </style>
  </defs>
  <path id="Я_такого_не_говорил" data-name="Я такого не говорил" class="cls-1" d="M1576.93,46.264l-0.06-1.916a2.736,2.736,0,0,1,2.39-2.893c-1.59-.48-2.38-1.4-2.38-2.759V36.6a2.569,2.569,0,0,1,1.2-2.356,5.252,5.252,0,0,1,2.83-.745h4.75V51h-3.85V42.6q-1.2,0-1.2.891c0,0.033.02,0.777,0.04,2.234l0.03,1.05V46.8q0,3.479-.63,4.224h-3.84q0.72-.561.72-4.761h0Zm4.88-5.786V35.741a0.944,0.944,0,0,0-1.18.918v2.888a0.947,0.947,0,0,0,1.18.93h0Zm18.39-3.65h-8.14V39.1h2.15V51h3.84V39.1h2.15V36.828Zm9.5,2.893c0-1.994-1.3-2.991-3.88-2.991q-4.155,0-4.15,2.869v2.832h3.35c0-.2-0.01-0.5-0.05-0.9q-0.03-.6-0.03-0.9c0-1.131.23-1.7,0.68-1.7a0.577,0.577,0,0,1,.6.7v2.1a1.937,1.937,0,0,1-1.21.976,11.6,11.6,0,0,0-2.78,1.77,2.3,2.3,0,0,0-.69,1.66v2.844q0,2.222,2.85,2.222c1.23,0,1.97-.248,2.23-0.745V51h3.08V39.721ZM1605.65,49a0.564,0.564,0,0,1-.63-0.647V45.775a1.233,1.233,0,0,1,1.2-1.074v3.65a0.54,0.54,0,0,1-.57.647h0Zm11.97-5.9a32.78,32.78,0,0,1,1.68-3.388,1.209,1.209,0,0,1,.97-0.336V36.852a7.036,7.036,0,0,0-1.74-.183,2.39,2.39,0,0,0-1.44.482q-0.66.482-2.31,4.277v-4.6h-3.6V51h3.6V45.763L1616.9,51h4.1Zm8.47,8.093q4.02,0,4.02-2.869V39.6a2.325,2.325,0,0,0-1.21-2.173,5.563,5.563,0,0,0-2.81-.7q-4.14,0-4.14,2.991V48.2q0,2.991,4.14,2.991h0Zm-0.05-2.173a0.591,0.591,0,0,1-.61-0.72V39.623a0.579,0.579,0,0,1,.61-0.7,0.57,0.57,0,0,1,.59.7V48.3a0.583,0.583,0,0,1-.59.72h0Zm13.44-12.195h-7.25V51h3.87V39.074h3.38V36.828Zm5.25,14.368q4.035,0,4.03-2.869V39.6a2.333,2.333,0,0,0-1.22-2.173,5.537,5.537,0,0,0-2.81-.7q-4.14,0-4.14,2.991V48.2q0,2.991,4.14,2.991h0Zm-0.05-2.173a0.591,0.591,0,0,1-.61-0.72V39.623a0.611,0.611,0,1,1,1.21,0V48.3a0.589,0.589,0,0,1-.6.72h0Zm-59.52,7.805h-3.86v5.3h-1.03v-5.3h-3.84V71h3.84V64.25h1.03V71h3.86V56.828Zm9.49,2.771q0-2.868-4.08-2.869-4.065,0-4.06,2.991V68.2q0,2.991,4.06,2.991,4.08,0,4.08-2.869V65.446h-3.47V68.3a0.606,0.606,0,1,1-1.19,0V64.994h4.66V59.6Zm-4.66,3.272V59.623a0.6,0.6,0,1,1,1.19,0V62.87h-1.19Zm18.44-6.043h-7.25V71h3.87V59.074h3.38V56.828Zm5.25,14.368q4.035,0,4.03-2.869V59.6a2.333,2.333,0,0,0-1.22-2.173,5.537,5.537,0,0,0-2.81-.7q-4.14,0-4.14,2.991V68.2q0,2.991,4.14,2.991h0Zm-0.05-2.173a0.591,0.591,0,0,1-.61-0.72V59.623a0.611,0.611,0,1,1,1.21,0V68.3a0.589,0.589,0,0,1-.6.72h0ZM1624.68,71a4.085,4.085,0,0,0,2.78-.915,3.217,3.217,0,0,0,1.04-2.539,6.8,6.8,0,0,0-.38-2.838,3.174,3.174,0,0,0-1.99-1.08q2.25-.794,2.25-2.6v-1.1a2.566,2.566,0,0,0-1.2-2.362,5.272,5.272,0,0,0-2.82-.739h-4.54V71h4.86Zm-1.01-8.423v-3.5a0.894,0.894,0,0,1,1.08.928v1.648a0.894,0.894,0,0,1-1.08.928h0Zm0,6.177V64.469a0.894,0.894,0,0,1,1.08.928v2.429a0.894,0.894,0,0,1-1.08.928h0Zm10.28,2.441c2.68,0,4.03-.956,4.03-2.869V59.6a2.333,2.333,0,0,0-1.22-2.173,5.537,5.537,0,0,0-2.81-.7q-4.14,0-4.14,2.991V68.2q0,2.991,4.14,2.991h0Zm-0.05-2.173a0.591,0.591,0,0,1-.61-0.72V59.623a0.611,0.611,0,1,1,1.21,0V68.3a0.589,0.589,0,0,1-.6.72h0Zm11.78,2.173a2.928,2.928,0,0,0,1.78-.537,1.688,1.688,0,0,0,.74-1.428V59.049a1.9,1.9,0,0,0-1.01-1.721,4.268,4.268,0,0,0-2.2-.6,3.2,3.2,0,0,0-2.03.671l-0.3-.574h-2.63V74h3.48V70.67a3.653,3.653,0,0,0,2.17.525h0Zm-1.56-2.2a0.543,0.543,0,0,1-.61-0.623v-8.8a0.606,0.606,0,1,1,1.21,0v8.777a0.552,0.552,0,0,1-.6.647h0Zm9.45,2,2.63-6.494V71h3.19V56.828h-3.38l-3.2,7.349V56.828h-3.19V71h3.95Zm17.41-14.172h-8.69l0.02,10.718a2.312,2.312,0,0,1-.12.964,0.65,0.65,0,0,1-.56.2,2.357,2.357,0,0,1-.89-0.159V71a11.92,11.92,0,0,0,2.27.2c1.94,0,2.9-.749,2.9-2.246V59.1h1.35V71h3.72V56.828Z" transform="translate(-1576.22 -33.5)"/>
</svg>
